<svg width="21" height="27" viewBox="0 0 21 27" fill="none" xmlns="http://www.w3.org/2000/svg">
<ellipse cx="10" cy="10.5" rx="7" ry="6.5" fill="white"/>
<path d="M10.125 27C10.125 27 20.25 17.4049 20.25 10.125C20.25 7.43968 19.1833 4.86435 17.2845 2.96554C15.3857 1.06674 12.8103 0 10.125 0C7.43968 0 4.86435 1.06674 2.96554 2.96554C1.06674 4.86435 4.00143e-08 7.43968 0 10.125C0 17.4049 10.125 27 10.125 27ZM10.125 15.1875C8.78234 15.1875 7.49467 14.6541 6.54527 13.7047C5.59587 12.7553 5.0625 11.4677 5.0625 10.125C5.0625 8.78234 5.59587 7.49467 6.54527 6.54527C7.49467 5.59587 8.78234 5.0625 10.125 5.0625C11.4677 5.0625 12.7553 5.59587 13.7047 6.54527C14.6541 7.49467 15.1875 8.78234 15.1875 10.125C15.1875 11.4677 14.6541 12.7553 13.7047 13.7047C12.7553 14.6541 11.4677 15.1875 10.125 15.1875Z" fill="#D91111"/>
</svg>
